HIERARCHY
ROOT Pelvis
{
	OFFSET 0.000000 0.000000 0.000000
	CHANNELS 6 Xposition Yposition Zposition Zrotation Yrotation Xrotation 
	JOINT Left_hip
	{
		OFFSET 0.076090 -0.089427 -0.010735
		CHANNELS 3 Zrotation Yrotation Xrotation
		JOINT Left_knee
		{
			OFFSET 0.030200 -0.359518 -0.003501
			CHANNELS 3 Zrotation Yrotation Xrotation
			JOINT Left_ankle
			{
				OFFSET -0.011005 -0.371022 -0.045888
				CHANNELS 3 Zrotation Yrotation Xrotation
				JOINT Left_foot
				{
					OFFSET 0.023930 -0.052103 0.111084
					CHANNELS 3 Zrotation Yrotation Xrotation
					End Site
					{
						OFFSET 0.000000 0.000000 0.000000
					}
				}
			}
		}
	}
	JOINT Right_hip
	{
		OFFSET -0.073836 -0.088112 -0.007709
		CHANNELS 3 Zrotation Yrotation Xrotation
		JOINT Right_knee
		{
			OFFSET -0.035715 -0.367809 -0.006536
			CHANNELS 3 Zrotation Yrotation Xrotation
			JOINT Right_ankle
			{
				OFFSET 0.013718 -0.371958 -0.043815
				CHANNELS 3 Zrotation Yrotation Xrotation
				JOINT Right_foot
				{
					OFFSET -0.021936 -0.046387 0.114542
					CHANNELS 3 Zrotation Yrotation Xrotation
					End Site
					{
						OFFSET 0.000000 0.000000 0.000000
					}
				}
			}
		}
	}
	JOINT Spine1
	{
		OFFSET -0.001865 0.102064 -0.019455
		CHANNELS 3 Zrotation Yrotation Xrotation
		JOINT Spine2
		{
			OFFSET 0.003082 0.129260 -0.001938
			CHANNELS 3 Zrotation Yrotation Xrotation
			JOINT Spine3
			{
				OFFSET 0.001104 0.048093 0.026561
				CHANNELS 3 Zrotation Yrotation Xrotation
				JOINT Neck
				{
					OFFSET -0.002010 0.204222 -0.047183
					CHANNELS 3 Zrotation Yrotation Xrotation
					JOINT Head
					{
						OFFSET 0.005050 0.063649 0.048489
						CHANNELS 3 Zrotation Yrotation Xrotation
						End Site
						{
							OFFSET 0.000000 0.000000 0.000000
						}
					}
				}
				JOINT Left_collar
				{
					OFFSET 0.072979 0.114065 -0.031633
					CHANNELS 3 Zrotation Yrotation Xrotation
					JOINT Left_shoulder
					{
						OFFSET 0.083419 0.032092 -0.006530
						CHANNELS 3 Zrotation Yrotation Xrotation
						JOINT Left_elbow
						{
							OFFSET 0.239393 -0.012014 -0.025060
							CHANNELS 3 Zrotation Yrotation Xrotation
							JOINT Left_wrist
							{
								OFFSET 0.227297 0.008116 0.000384
								CHANNELS 3 Zrotation Yrotation Xrotation
								JOINT Left_palm
								{
									OFFSET 0.074607 -0.009248 -0.012277
									CHANNELS 3 Zrotation Yrotation Xrotation
									End Site
									{
										OFFSET 0.000000 0.000000 0.000000
									}
								}
							}
						}
					}
				}
				JOINT Right_collar
				{
					OFFSET -0.074980 0.111880 -0.037894
					CHANNELS 3 Zrotation Yrotation Xrotation
					JOINT Right_shoulder
					{
						OFFSET -0.087565 0.034353 -0.009323
						CHANNELS 3 Zrotation Yrotation Xrotation
						JOINT Right_elbow
						{
							OFFSET -0.236838 -0.013719 -0.019794
							CHANNELS 3 Zrotation Yrotation Xrotation
							JOINT Right_wrist
							{
								OFFSET -0.235053 0.006433 -0.003853
								CHANNELS 3 Zrotation Yrotation Xrotation
								JOINT Right_palm
								{
									OFFSET -0.075499 -0.006894 -0.009792
									CHANNELS 3 Zrotation Yrotation Xrotation
									End Site
									{
										OFFSET 0.000000 0.000000 0.000000
									}
								}
							}
						}
					}
				}
			}
		}
	}
}
MOTION
Frames: 14
Frame Time: 0.100000
-0.590814 0.093830 -0.515574 177.892978 4.051252 -16.704578 1.364692 -1.669747 17.903683 -2.363210 -13.301142 2.650592 3.567490 9.359601 -14.963571 -6.119505 14.603432 -16.616301 1.011830 -4.536872 -14.250225 1.403259 -4.745356 5.102024 22.226528 -16.315331 -6.698876 -34.271638 15.602934 -13.257507 4.802620 -4.811615 6.283285 -4.545978 4.267559 1.004960 1.775876 -2.161366 7.119242 0.039101 -19.963077 -8.539094 10.766838 -5.626919 -0.340541 -22.071757 -0.875640 -0.345196 -73.371994 -35.129674 24.331186 145.345053 -36.503088 -134.608633 61.400236 14.046646 -44.278907 7.876453 -9.326523 34.344565 11.360634 1.959876 5.866150 31.309214 -14.025647 28.757869 93.243398 55.504810 119.005256 -68.343991 31.707678 13.854547 7.168352 9.230684 4.613866 
-0.567540 0.085825 -0.442031 176.863230 3.440818 -14.723668 3.178119 -2.902032 20.002490 -1.236912 -13.095112 3.667162 2.115334 10.769334 -15.433116 -3.230462 13.904285 -16.879362 3.025862 -0.711734 -16.366416 2.197373 -3.237028 11.574434 21.605200 -20.404173 -3.801894 -36.016427 17.243749 -14.757465 5.703403 -5.820259 1.564476 -2.842886 4.929576 1.023352 2.016381 -2.478109 6.188675 0.164019 -20.439379 -8.426446 8.210769 -5.155930 1.657118 -23.900816 -0.451368 0.307440 -71.799528 -35.621603 23.971623 146.667971 -35.502126 -134.696242 62.810873 11.544492 -40.487144 6.972796 -9.813479 30.629490 13.488934 2.075561 6.223649 27.294565 -12.029384 29.531293 96.694930 55.668189 122.214749 -70.962559 33.169882 11.877223 7.806097 8.559402 4.040873 
-0.543402 0.069428 -0.378263 176.187094 2.964738 -15.824951 5.155216 -2.983350 19.664912 -1.441068 -13.223854 14.502741 -1.894449 9.388029 -11.902880 -2.285816 13.045317 -19.174264 6.517517 -0.070725 -10.153965 1.922434 -2.365285 11.348280 17.643802 -18.668763 -8.456833 -31.293148 16.189444 -12.077788 6.152576 -5.938085 0.803413 -2.276898 3.392900 0.422142 2.291216 -3.160863 5.347281 -0.740030 -19.938095 -5.956035 7.311109 -3.796311 2.945693 -23.580281 -2.423405 0.404000 -69.618169 -37.178916 22.768301 145.841830 -35.184229 -131.845767 62.355356 7.679396 -37.413390 9.188476 -9.095356 30.544851 12.594243 3.024551 5.512221 26.062821 -11.556638 29.503369 98.066003 53.986328 125.205212 -69.548302 31.833621 9.087644 5.103078 7.264998 6.978911 
-0.524054 0.061430 -0.332444 176.207307 1.518422 -18.086022 6.821896 -2.489183 12.276143 -3.973844 -9.292355 37.066843 -2.378584 7.256619 -6.726141 -6.405965 12.540362 -22.849986 8.233424 -3.206745 -2.569211 2.636809 -0.316931 9.125889 12.996909 -14.103901 -9.439582 -25.189548 13.815083 -10.188166 6.902918 -4.446060 3.517718 -1.990682 1.765988 -0.586750 2.335718 -3.403154 5.311576 -2.829637 -20.138270 -5.755544 7.080198 -2.710014 3.293817 -22.888632 -3.839007 -0.346062 -69.919630 -38.961474 22.730720 146.488046 -36.314926 -131.675347 58.175515 8.188376 -40.116665 8.748343 -8.610806 33.696359 12.251672 2.852849 4.788454 26.626367 -11.624553 28.351323 99.640214 54.078904 128.223877 -68.138338 29.735249 8.332558 6.318514 7.667115 8.603246 
-0.508025 0.053309 -0.296918 177.820105 -2.676998 -21.385788 6.843005 -1.726567 6.305917 -2.422009 -2.023128 47.979121 0.259766 10.760998 -9.738944 -7.939644 14.198412 -22.471350 8.307100 -4.850440 6.370443 2.563508 4.453103 5.500015 11.951698 -12.170235 -9.640534 -22.516951 12.735800 -10.317191 6.945049 -2.663499 6.998607 -1.727075 1.127016 1.623180 2.597374 -2.755025 5.580389 -3.433481 -19.829862 -6.625058 6.620507 -1.978947 0.825534 -23.345018 -5.045707 -0.211947 -67.886851 -37.960868 21.733590 149.588861 -38.913623 -133.543497 57.132130 6.864937 -37.891804 7.669459 -8.351987 32.677013 12.951382 4.398667 5.472569 25.475193 -11.369937 28.576858 99.728452 53.222995 127.782592 -70.403172 29.287907 8.997419 9.223486 8.442741 5.740504 
-0.495785 0.045699 -0.269601 -179.114380 -8.798185 -22.054318 5.476299 -1.537283 -0.959056 -1.285331 1.539359 43.207294 0.028208 12.164199 -9.239214 -4.906612 15.009668 -21.804910 6.944594 -5.408310 9.576622 2.079238 9.092882 5.564653 14.325591 -9.817552 -10.273036 -25.387946 12.727971 -12.146787 7.001558 -1.097580 8.758262 -2.313878 0.970515 1.761571 2.214102 -1.862336 6.364882 -4.224389 -17.375714 -7.035440 5.869755 -1.343766 1.141807 -22.493121 -4.473377 -0.620255 -66.507067 -33.798314 21.668556 151.854555 -43.741427 -136.134830 54.394150 5.258575 -37.359929 6.439346 -7.554390 30.267740 12.047586 4.823409 5.279404 25.888723 -10.177606 28.761046 98.977883 51.604319 125.875237 -68.600978 29.613871 9.826166 10.602551 8.680842 3.305121 
-0.486831 0.040886 -0.243335 -176.151599 -14.893810 -23.793177 3.438395 -2.950798 -4.835874 -1.453137 -1.971090 30.808179 -1.843790 11.156781 -7.245922 -0.913623 16.098856 -19.923116 6.224942 -4.438522 12.762477 1.008912 14.548045 6.659712 16.038071 -10.124016 -11.993567 -27.695878 13.936003 -14.081284 7.298965 -0.319639 11.067743 -2.633803 0.556277 2.508981 1.752402 -1.430308 7.221485 -5.326700 -12.649818 -8.256638 3.256980 -0.464781 0.973861 -22.889388 -3.486791 -0.915176 -61.967920 -28.833630 18.486623 143.137207 -55.532629 -130.898744 50.270347 2.859396 -34.336135 5.949669 -7.113054 25.954876 12.615937 4.875169 4.811295 25.314494 -9.419028 29.791845 98.504656 51.163072 123.951637 -67.923782 30.454415 10.778289 12.091368 8.809877 0.948284 
-0.477561 0.036812 -0.214373 -173.327679 -20.576654 -25.852123 2.093100 -4.115333 -6.552501 -1.633427 -9.811912 17.216620 -4.298891 7.964077 -5.767083 3.047174 17.420437 -17.390248 5.273354 -3.358563 16.241461 0.309255 20.367479 7.480554 18.054647 -10.980793 -14.158711 -30.225321 15.179008 -16.555663 7.363921 0.870339 12.629858 -2.460958 -0.529684 3.495244 1.319727 -1.311630 7.884094 -6.479875 -4.385693 -8.395590 -0.587523 1.861067 0.534928 -23.886135 -3.868807 -1.188583 -54.969782 -23.797146 12.448558 79.070103 -71.461010 -73.744364 45.054342 -2.196569 -22.182988 4.222914 -6.869482 17.141655 13.875264 4.126596 4.103575 24.507472 -9.669990 30.569690 98.513687 51.814204 123.167682 -67.868937 31.728238 11.360073 15.365983 9.615288 -2.402172 
-0.465563 0.033547 -0.180028 -170.787880 -25.667393 -27.396739 1.423689 -1.911000 -7.737719 -1.962310 -14.153429 5.825646 -7.697423 4.173977 -3.193270 6.247389 19.008352 -14.816684 4.216236 -2.406962 19.916814 -0.430630 25.788019 6.826201 20.502734 -12.424820 -16.763026 -34.206970 17.044210 -19.812835 7.233310 2.210151 13.178014 -2.061754 -2.782650 4.399659 0.501423 -1.485189 7.639151 -7.075370 6.292800 -7.265423 -4.353018 5.341740 1.280489 -26.300481 -9.790002 -0.694420 -43.908663 -20.727525 4.501232 5.147584 -36.050541 -12.677310 38.837455 -9.960062 3.525149 0.717417 -7.100223 2.700883 16.146901 4.769575 3.686939 22.716022 -10.910618 31.474890 98.837681 52.420767 122.457973 -69.385731 32.425067 8.948014 20.187016 11.131228 -6.585416 
-0.451120 0.031679 -0.137093 -168.943928 -32.200256 -27.313893 1.176868 0.366169 -9.968456 -2.542798 -15.839201 2.863141 -8.924588 2.354821 -2.899984 7.897954 19.008463 -12.408632 3.351602 -0.995747 21.403806 0.031584 30.097912 7.943603 21.246082 -10.909478 -18.949654 -35.577750 15.854341 -20.979959 7.488567 2.432538 12.932352 -1.861062 -5.015344 4.044578 -0.119383 -1.851457 7.315923 -7.619901 16.470848 -6.396843 -7.743265 11.645719 1.176673 -27.731400 -15.224486 2.000247 -41.133582 -14.508235 0.433121 -10.611753 8.543035 -11.370400 36.535435 -14.484393 22.854904 -1.860138 -6.731027 -9.693727 15.313255 6.387093 3.450659 23.293739 -9.492547 31.464387 96.995389 51.101279 122.795747 -71.520969 31.987472 4.145334 22.767317 11.267178 -8.947077 
-0.432279 0.027663 -0.083332 -167.950237 -41.857521 -25.157070 2.956565 -2.197419 -11.848141 -2.734229 -18.932159 8.749865 -9.514734 2.920659 -2.706159 9.129252 19.190145 -13.363833 1.837465 0.278548 22.123882 0.155884 35.830303 6.176548 22.072584 -7.338432 -17.618967 -36.568249 13.882029 -22.107177 8.919579 2.621368 11.538886 -2.656089 -1.921332 2.835870 0.411963 -0.904572 8.028149 -7.883959 19.649719 -9.025026 -10.863052 20.971272 0.518786 -31.124829 -2.474616 0.651525 -49.450928 -3.073873 -1.426705 -4.125799 -1.472827 -12.552088 41.420665 -13.705885 15.645296 -2.560785 -6.931533 -8.206567 16.086093 2.001167 3.886990 22.031823 -6.593591 30.499898 97.658364 48.681082 121.482326 -70.896624 33.732409 5.496038 22.445824 9.763320 -8.191339 
-0.408454 0.014604 -0.022884 -166.314132 -47.610834 -23.506038 2.198001 -5.702108 -15.741071 -3.507909 -14.599324 18.773581 -6.086195 7.957038 -1.565307 8.385717 18.071749 -14.386962 -0.740821 1.936885 23.449404 -0.945650 38.581564 3.332309 22.374811 -6.944454 -14.376811 -36.701749 10.827471 -22.362009 8.338641 4.640527 8.310996 -2.690201 -0.830915 1.899221 0.372557 0.028089 8.979299 -8.962327 21.233980 -8.950027 -11.572509 24.681938 -1.379705 -29.830800 2.024240 0.799884 -54.857603 1.557597 -1.156099 -6.359707 3.801601 -11.184559 45.441440 -11.717035 14.370955 -6.024244 -7.672980 -10.303293 15.450116 -0.929707 4.835827 25.480517 -6.996443 30.981522 94.269983 50.834332 118.843821 -72.034437 32.127301 6.061869 24.276178 10.816733 -11.726786 
-0.381400 -0.000848 0.036175 -163.717295 -51.317182 -23.640100 0.783694 -3.817055 -13.248558 -4.864500 -12.617233 18.660015 -2.418901 8.140730 -4.072181 5.204434 18.501300 -13.941388 -2.603126 2.113497 21.674074 0.236592 39.792950 9.944644 23.424867 -8.240462 -11.050184 -38.337750 11.032446 -25.880077 7.714487 4.394342 5.666469 -3.896019 0.278519 1.095659 -0.348922 0.402501 8.752377 -9.764040 21.613358 -9.014053 -12.312649 28.407605 -2.152433 -30.145739 3.065597 0.921201 -54.647818 2.389223 -4.510253 -6.994825 6.653281 -17.906540 47.126125 -7.976114 12.107280 -6.845411 -8.142991 -9.575725 15.218293 -0.458275 5.603257 26.408426 -5.997279 31.353298 92.115533 49.973269 115.247835 -70.946863 31.300796 7.581699 24.656047 11.189330 -11.648599 
-0.354092 -0.013735 0.085799 -160.428513 -53.436166 -26.388886 -2.550115 -3.812354 -7.066872 -4.281002 -12.526239 15.005490 2.774507 9.638143 -5.585507 0.209694 19.037065 -14.426969 -2.660185 2.206964 15.747654 5.523186 35.804233 28.906138 24.676465 -10.815036 -4.684239 -37.782203 11.418064 -29.450654 6.225797 3.577328 5.189840 -4.896480 1.859246 -0.210523 -1.137324 0.727751 8.124893 -8.904689 22.198593 -7.767925 -12.143326 30.012257 -0.906239 -29.369995 0.985451 0.362982 -52.050510 -1.309474 -4.176519 -5.748760 4.575609 -17.373526 47.514686 -9.533198 15.020955 -6.456547 -8.439290 -10.504630 14.630499 1.171414 5.789887 27.871931 -6.001317 32.684010 90.202347 50.218518 113.256067 -71.599315 31.918811 8.545067 24.471879 11.430276 -11.899078 
